<?xml version="1.0" standalone="no"?>
<svg version="1.0" xmlns="http://www.w3.org/2000/svg"
 width="266.000000pt" height="92.000000pt" viewBox="0 0 266.000000 92.000000"
 preserveAspectRatio="xMidYMid meet" >

<g transform="translate(0.000000,92.000000) scale(0.100000,-0.100000)"
fill="#e50914" stroke="none">
<path d="M142 804 c-52 -36 -57 -61 -57 -309 0 -254 8 -300 51 -311 53 -14
138 54 165 132 20 55 20 396 0 442 -24 56 -109 81 -159 46z m88 -84 c7 -14 10
-85 8 -206 -3 -184 -3 -186 -28 -206 -23 -19 -25 -19 -38 -1 -20 28 -13 410 8
423 23 15 38 12 50 -10z"/>
<path d="M659 805 c-39 -21 -49 -63 -49 -202 0 -144 12 -187 55 -196 40 -7
107 19 141 54 26 28 29 38 33 115 3 84 3 84 -22 84 -13 0 -39 -3 -56 -6 -26
-6 -31 -11 -31 -36 0 -22 4 -28 18 -26 21 4 28 -44 12 -86 -8 -22 -15 -27 -38
-24 l-27 3 0 135 0 135 29 3 c31 4 46 -10 46 -45 0 -24 9 -27 48 -17 30 8 30
54 -1 90 -19 22 -34 28 -78 31 -35 2 -63 -2 -80 -12z"/>
<path d="M978 813 l-88 -4 0 -175 0 -176 28 6 c27 6 160 25 175 26 4 0 7 12 7
26 l0 26 -65 -7 -65 -7 0 51 0 50 48 3 c40 3 47 6 50 26 3 20 0 22 -47 22
l-51 0 0 45 0 45 66 0 c62 0 65 1 62 22 -3 26 -1 25 -120 21z"/>
<path d="M1185 811 c-39 -17 -49 -40 -53 -129 -6 -119 4 -152 51 -176 48 -23
115 -15 155 19 26 22 27 28 30 128 4 98 2 105 -21 132 -20 24 -33 29 -83 32
-32 1 -68 -1 -79 -6z m103 -149 c3 -99 2 -103 -20 -111 -13 -5 -30 -5 -40 1
-15 7 -18 24 -18 107 0 54 3 101 7 105 4 4 21 6 38 4 l30 -3 3 -103z"/>
<path d="M1417 813 c-4 -3 -7 -75 -7 -160 l0 -153 35 0 35 0 1 113 1 112 23
-50 c13 -27 33 -80 46 -117 24 -68 34 -78 87 -78 22 0 22 1 22 164 l0 164 -35
4 -35 4 0 -90 c0 -50 -4 -86 -9 -80 -4 5 -20 41 -35 79 -15 39 -32 76 -38 83
-11 13 -80 17 -91 5z"/>
<path d="M360 774 l0 -37 65 6 c36 4 65 4 65 2 0 -3 -18 -51 -41 -107 -65
-162 -99 -270 -99 -310 0 -21 3 -38 8 -38 4 0 54 20 112 44 102 42 105 44 102
72 -2 16 -6 31 -7 33 -2 2 -31 -6 -64 -17 -53 -18 -61 -19 -61 -5 0 17 82 226
111 285 11 21 19 53 19 73 l0 35 -105 0 -105 0 0 -36z"/>
<path d="M1710 641 l0 -169 78 -17 c42 -9 87 -19 100 -22 19 -4 22 -1 22 25 0
29 -3 31 -62 44 l-63 13 -3 148 -3 147 -34 0 -35 0 0 -169z"/>
<path d="M1940 616 c0 -107 3 -197 8 -199 4 -3 22 -8 40 -12 l32 -7 0 206 0
206 -40 0 -40 0 0 -194z"/>
<path d="M2070 595 l0 -215 26 -10 c14 -6 30 -10 35 -10 5 0 9 64 9 152 0 84
4 148 8 142 9 -9 51 -170 73 -277 11 -53 16 -60 51 -78 l38 -19 0 265 0 265
-30 0 -30 0 0 -125 c0 -77 -4 -125 -10 -125 -5 0 -10 9 -10 19 0 10 -8 47 -19
82 -10 35 -24 83 -30 107 l-12 42 -49 0 -50 0 0 -215z"/>
<path d="M2370 533 l0 -278 95 -52 c53 -29 100 -53 105 -53 12 0 13 80 2 96
-4 6 -35 26 -69 43 l-63 31 0 86 c0 85 0 86 23 80 12 -4 37 -9 55 -13 l33 -6
-3 43 c-3 46 -6 48 -80 64 -28 6 -28 8 -28 81 l0 75 68 -2 67 -3 0 40 0 40
-102 3 -103 3 0 -278z"/>
</g>
</svg>
